{
	"accessors" : 
	[
		{
			"bufferView" : 2,
			"byteOffset" : 0,
			"componentType" : 5126,
			"count" : 9042,
			"max" : 
			[
				1,
				0.6120656132698059,
				0.3392233550548553,
				1
			],
			"min" : 
			[
				0.006584956776350737,
				0.006584956776350737,
				0.006584956776350737,
				1
			],
			"name" : "accessor_color_m0-PolyPaper16_-10636",
			"type" : "VEC4"
		},
		{
			"bufferView" : 2,
			"byteOffset" : 144672,
			"componentType" : 5126,
			"count" : 3240,
			"max" : 
			[
				0.6800203323364258,
				0.6800203323364258,
				0.6800203323364258,
				0.2509804
			],
			"min" : 
			[
				0.6800203323364258,
				0.6800203323364258,
				0.6800203323364258,
				0.2509804
			],
			"name" : "accessor_color_m1-PolyGlass24_-10638",
			"type" : "VEC4"
		},
		{
			"bufferView" : 2,
			"byteOffset" : 196512,
			"componentType" : 5126,
			"count" : 9910,
			"max" : 
			[
				1,
				0.6120656132698059,
				0.2508402466773987,
				1
			],
			"min" : 
			[
				0.05637409910559654,
				0.1011451631784439,
				0.07805658876895905,
				1
			],
			"name" : "accessor_color_m2-PolyPaper18_-10640",
			"type" : "VEC4"
		},
		{
			"bufferView" : 2,
			"byteOffset" : 355072,
			"componentType" : 5126,
			"count" : 2808,
			"max" : 
			[
				1,
				0.4368127584457397,
				0.07805658876895905,
				1
			],
			"min" : 
			[
				0.006584956776350737,
				0.006584956776350737,
				0,
				1
			],
			"name" : "accessor_color_m3-PolyPaper10_-10854",
			"type" : "VEC4"
		},
		{
			"bufferView" : 0,
			"byteOffset" : 0,
			"componentType" : 5123,
			"count" : 9780,
			"max" : 
			[
				9041
			],
			"min" : 
			[
				0
			],
			"name" : "accessor_indices_0_m0-PolyPaper16_-10636",
			"type" : "SCALAR"
		},
		{
			"bufferView" : 0,
			"byteOffset" : 19560,
			"componentType" : 5123,
			"count" : 3540,
			"max" : 
			[
				3239
			],
			"min" : 
			[
				0
			],
			"name" : "accessor_indices_0_m1-PolyGlass24_-10638",
			"type" : "SCALAR"
		},
		{
			"bufferView" : 0,
			"byteOffset" : 26640,
			"componentType" : 5123,
			"count" : 10920,
			"max" : 
			[
				9909
			],
			"min" : 
			[
				0
			],
			"name" : "accessor_indices_0_m2-PolyPaper18_-10640",
			"type" : "SCALAR"
		},
		{
			"bufferView" : 0,
			"byteOffset" : 48480,
			"componentType" : 5123,
			"count" : 2868,
			"max" : 
			[
				2807
			],
			"min" : 
			[
				0
			],
			"name" : "accessor_indices_0_m3-PolyPaper10_-10854",
			"type" : "SCALAR"
		},
		{
			"bufferView" : 1,
			"byteOffset" : 108504,
			"componentType" : 5126,
			"count" : 9042,
			"max" : 
			[
				1,
				1,
				1
			],
			"min" : 
			[
				-1,
				-1,
				-1
			],
			"name" : "accessor_normal_m0-PolyPaper16_-10636",
			"type" : "VEC3"
		},
		{
			"bufferView" : 1,
			"byteOffset" : 255888,
			"componentType" : 5126,
			"count" : 3240,
			"max" : 
			[
				1,
				1,
				1
			],
			"min" : 
			[
				-1,
				-1,
				-1
			],
			"name" : "accessor_normal_m1-PolyGlass24_-10638",
			"type" : "VEC3"
		},
		{
			"bufferView" : 1,
			"byteOffset" : 413688,
			"componentType" : 5126,
			"count" : 9910,
			"max" : 
			[
				0.9991306,
				0.9998717,
				0.9994016999999999
			],
			"min" : 
			[
				-0.9997513,
				-0.9999155,
				-0.9977313
			],
			"name" : "accessor_normal_m2-PolyPaper18_-10640",
			"type" : "VEC3"
		},
		{
			"bufferView" : 1,
			"byteOffset" : 566304,
			"componentType" : 5126,
			"count" : 2808,
			"max" : 
			[
				0.9941157,
				0.9980392,
				0.9978054
			],
			"min" : 
			[
				-0.9922152,
				-0.9980392,
				-0.9961078
			],
			"name" : "accessor_normal_m3-PolyPaper10_-10854",
			"type" : "VEC3"
		},
		{
			"bufferView" : 1,
			"byteOffset" : 0,
			"componentType" : 5126,
			"count" : 9042,
			"max" : 
			[
				-0.409972,
				1.880029,
				-0.1699607
			],
			"min" : 
			[
				-1.152236,
				1.380009,
				-0.6107759
			],
			"name" : "accessor_position_m0-PolyPaper16_-10636",
			"type" : "VEC3"
		},
		{
			"bufferView" : 1,
			"byteOffset" : 217008,
			"componentType" : 5126,
			"count" : 3240,
			"max" : 
			[
				-0.4100287,
				1.894414,
				-0.1699948
			],
			"min" : 
			[
				-1.150029,
				1.399967,
				-0.6099947999999999
			],
			"name" : "accessor_position_m1-PolyGlass24_-10638",
			"type" : "VEC3"
		},
		{
			"bufferView" : 1,
			"byteOffset" : 294768,
			"componentType" : 5126,
			"count" : 9910,
			"max" : 
			[
				-0.4055929,
				1.839053,
				-0.1429878
			],
			"min" : 
			[
				-1.152165,
				1.371498,
				-0.6186156
			],
			"name" : "accessor_position_m2-PolyPaper18_-10640",
			"type" : "VEC3"
		},
		{
			"bufferView" : 1,
			"byteOffset" : 532608,
			"componentType" : 5126,
			"count" : 2808,
			"max" : 
			[
				-0.4346504,
				1.896005,
				-0.1921088
			],
			"min" : 
			[
				-1.114828,
				1.364863,
				-0.5697875999999999
			],
			"name" : "accessor_position_m3-PolyPaper10_-10854",
			"type" : "VEC3"
		}
	],
	"asset" : 
	{
		"copyright" : "Unknown",
		"generator" : "glTF 1-to-2 Upgrader for Google Blocks",
		"version" : "2.0"
	},
	"bufferViews" : 
	[
		{
			"buffer" : 0,
			"byteLength" : 54216,
			"byteOffset" : 0,
			"name" : "ushortBufferView",
			"target" : 34963
		},
		{
			"buffer" : 0,
			"byteLength" : 600000,
			"byteOffset" : 54216,
			"byteStride" : 12,
			"name" : "vec3BufferView",
			"target" : 34962
		},
		{
			"buffer" : 0,
			"byteLength" : 400000,
			"byteOffset" : 654216,
			"byteStride" : 16,
			"name" : "vec4BufferView",
			"target" : 34962
		}
	],
	"buffers" : 
	[
		{
			"byteLength" : 1054216,
			"name" : "model",
			"uri" : "model.bin"
		}
	],
	"materials" : 
	[
		{
			"alphaMode" : "OPAQUE",
			"doubleSided" : false,
			"name" : "BlocksPaper",
			"pbrMetallicRoughness" : 
			{
				"baseColorFactor" : 
				[
					1,
					1,
					1,
					1
				],
				"metallicFactor" : 0,
				"roughnessFactor" : 0.6
			}
		},
		{
			"alphaMode" : "BLEND",
			"doubleSided" : false,
			"name" : "BlocksGlass",
			"pbrMetallicRoughness" : 
			{
				"baseColorFactor" : 
				[
					0.2,
					0.2,
					1,
					0.3
				],
				"metallicFactor" : 1,
				"roughnessFactor" : 0.4
			}
		},
		{
			"alphaMode" : "OPAQUE",
			"doubleSided" : true,
			"name" : "BlocksGem",
			"pbrMetallicRoughness" : 
			{
				"baseColorFactor" : 
				[
					1,
					0.4,
					1,
					1
				],
				"metallicFactor" : 0,
				"roughnessFactor" : 0.1
			}
		}
	],
	"meshes" : 
	[
		{
			"name" : "mesh_m0-PolyPaper16_-10636",
			"primitives" : 
			[
				{
					"attributes" : 
					{
						"COLOR_0" : 0,
						"NORMAL" : 8,
						"POSITION" : 12
					},
					"indices" : 4,
					"material" : 0,
					"mode" : 4
				}
			]
		},
		{
			"name" : "mesh_m1-PolyGlass24_-10638",
			"primitives" : 
			[
				{
					"attributes" : 
					{
						"COLOR_0" : 1,
						"NORMAL" : 9,
						"POSITION" : 13
					},
					"indices" : 5,
					"material" : 1,
					"mode" : 4
				}
			]
		},
		{
			"name" : "mesh_m2-PolyPaper18_-10640",
			"primitives" : 
			[
				{
					"attributes" : 
					{
						"COLOR_0" : 2,
						"NORMAL" : 10,
						"POSITION" : 14
					},
					"indices" : 6,
					"material" : 0,
					"mode" : 4
				}
			]
		},
		{
			"name" : "mesh_m3-PolyPaper10_-10854",
			"primitives" : 
			[
				{
					"attributes" : 
					{
						"COLOR_0" : 3,
						"NORMAL" : 11,
						"POSITION" : 15
					},
					"indices" : 7,
					"material" : 0,
					"mode" : 4
				}
			]
		}
	],
	"nodes" : 
	[
		{
			"matrix" : 
			[
				1,
				0,
				0,
				0,
				0,
				1,
				0,
				0,
				0,
				0,
				1,
				0,
				0,
				0,
				0,
				1
			],
			"mesh" : 0,
			"name" : "node_MeshObject-1430260352-PolyPaper16"
		},
		{
			"matrix" : 
			[
				1,
				0,
				0,
				0,
				0,
				1,
				0,
				0,
				0,
				0,
				1,
				0,
				0,
				0,
				0,
				1
			],
			"mesh" : 3,
			"name" : "node_MeshObject-267845760-PolyPaper10"
		},
		{
			"matrix" : 
			[
				1,
				0,
				0,
				0,
				0,
				1,
				0,
				0,
				0,
				0,
				1,
				0,
				0,
				0,
				0,
				1
			],
			"mesh" : 2,
			"name" : "node_MeshObject-392820224-PolyPaper18"
		},
		{
			"matrix" : 
			[
				1,
				0,
				0,
				0,
				0,
				1,
				0,
				0,
				0,
				0,
				1,
				0,
				0,
				0,
				0,
				1
			],
			"mesh" : 1,
			"name" : "node_MeshObject-911540288-PolyGlass24"
		}
	],
	"scene" : 0,
	"scenes" : 
	[
		{
			"extras" : {},
			"name" : "defaultScene",
			"nodes" : 
			[
				0,
				3,
				2,
				1
			]
		}
	]
}