{
	"accessors" : 
	[
		{
			"bufferView" : 2,
			"byteOffset" : 0,
			"componentType" : 5126,
			"count" : 6384,
			"max" : 
			[
				1,
				0.835527777671814,
				0.7226724624633789,
				1
			],
			"min" : 
			[
				0,
				0.05284162610769272,
				0,
				1
			],
			"name" : "accessor_color_m0-PolyPaper13_-621124",
			"type" : "VEC4"
		},
		{
			"bufferView" : 2,
			"byteOffset" : 102144,
			"componentType" : 5126,
			"count" : 10301,
			"max" : 
			[
				1,
				0.7372047901153564,
				0.8277258276939392,
				1
			],
			"min" : 
			[
				0.006584956776350737,
				0.006584956776350737,
				0,
				1
			],
			"name" : "accessor_color_m1-PolyPaper20_-621130",
			"type" : "VEC4"
		},
		{
			"bufferView" : 2,
			"byteOffset" : 266960,
			"componentType" : 5126,
			"count" : 14755,
			"max" : 
			[
				1,
				0.835527777671814,
				0.7893137335777283,
				1
			],
			"min" : 
			[
				0,
				0.006584956776350737,
				0,
				1
			],
			"name" : "accessor_color_m2-PolyPaper10_-621136",
			"type" : "VEC4"
		},
		{
			"bufferView" : 2,
			"byteOffset" : 503040,
			"componentType" : 5126,
			"count" : 2688,
			"max" : 
			[
				0.2631747424602509,
				0.5542271137237549,
				0.06575388461351395,
				1
			],
			"min" : 
			[
				0.2631747424602509,
				0.5542271137237549,
				0.06575388461351395,
				1
			],
			"name" : "accessor_color_m3-PolyPaper9_-621142",
			"type" : "VEC4"
		},
		{
			"bufferView" : 0,
			"byteOffset" : 0,
			"componentType" : 5123,
			"count" : 9714,
			"max" : 
			[
				6383
			],
			"min" : 
			[
				0
			],
			"name" : "accessor_indices_0_m0-PolyPaper13_-621124",
			"type" : "SCALAR"
		},
		{
			"bufferView" : 0,
			"byteOffset" : 19428,
			"componentType" : 5123,
			"count" : 15861,
			"max" : 
			[
				10300
			],
			"min" : 
			[
				0
			],
			"name" : "accessor_indices_0_m1-PolyPaper20_-621130",
			"type" : "SCALAR"
		},
		{
			"bufferView" : 0,
			"byteOffset" : 51150,
			"componentType" : 5123,
			"count" : 22245,
			"max" : 
			[
				14754
			],
			"min" : 
			[
				0
			],
			"name" : "accessor_indices_0_m2-PolyPaper10_-621136",
			"type" : "SCALAR"
		},
		{
			"bufferView" : 0,
			"byteOffset" : 95640,
			"componentType" : 5123,
			"count" : 4032,
			"max" : 
			[
				2687
			],
			"min" : 
			[
				0
			],
			"name" : "accessor_indices_0_m3-PolyPaper9_-621142",
			"type" : "SCALAR"
		},
		{
			"bufferView" : 1,
			"byteOffset" : 76608,
			"componentType" : 5126,
			"count" : 6384,
			"max" : 
			[
				1,
				1,
				1
			],
			"min" : 
			[
				-1,
				-1,
				-1
			],
			"name" : "accessor_normal_m0-PolyPaper13_-621124",
			"type" : "VEC3"
		},
		{
			"bufferView" : 1,
			"byteOffset" : 276828,
			"componentType" : 5126,
			"count" : 10301,
			"max" : 
			[
				0.9997181000000001,
				1,
				0.9997181000000001
			],
			"min" : 
			[
				-0.9997181000000001,
				-1,
				-0.9997485
			],
			"name" : "accessor_normal_m1-PolyPaper20_-621130",
			"type" : "VEC3"
		},
		{
			"bufferView" : 1,
			"byteOffset" : 577500,
			"componentType" : 5126,
			"count" : 14755,
			"max" : 
			[
				1,
				1,
				1
			],
			"min" : 
			[
				-1,
				-1,
				-1
			],
			"name" : "accessor_normal_m2-PolyPaper10_-621136",
			"type" : "VEC3"
		},
		{
			"bufferView" : 1,
			"byteOffset" : 786816,
			"componentType" : 5126,
			"count" : 2688,
			"max" : 
			[
				0.9973166999999999,
				0.9539605,
				0.9963457999999999
			],
			"min" : 
			[
				-0.9961749,
				-0.9596772,
				-0.9999373
			],
			"name" : "accessor_normal_m3-PolyPaper9_-621142",
			"type" : "VEC3"
		},
		{
			"bufferView" : 1,
			"byteOffset" : 0,
			"componentType" : 5126,
			"count" : 6384,
			"max" : 
			[
				1.180078,
				2.404316,
				-3.626113
			],
			"min" : 
			[
				-0.6599234,
				0.2399473,
				-4.071949
			],
			"name" : "accessor_position_m0-PolyPaper13_-621124",
			"type" : "VEC3"
		},
		{
			"bufferView" : 1,
			"byteOffset" : 153216,
			"componentType" : 5126,
			"count" : 10301,
			"max" : 
			[
				0.875154,
				2.014902,
				-3.624564
			],
			"min" : 
			[
				-0.1683,
				1.051438,
				-4.076138
			],
			"name" : "accessor_position_m1-PolyPaper20_-621130",
			"type" : "VEC3"
		},
		{
			"bufferView" : 1,
			"byteOffset" : 400440,
			"componentType" : 5126,
			"count" : 14755,
			"max" : 
			[
				1.149905,
				1.299358,
				-3.698091
			],
			"min" : 
			[
				-0.5975977,
				0.3374772,
				-4.056642
			],
			"name" : "accessor_position_m2-PolyPaper10_-621136",
			"type" : "VEC3"
		},
		{
			"bufferView" : 1,
			"byteOffset" : 754560,
			"componentType" : 5126,
			"count" : 2688,
			"max" : 
			[
				-0.322561,
				1.147104,
				-3.778091
			],
			"min" : 
			[
				-0.5158617,
				1.039476,
				-3.963175
			],
			"name" : "accessor_position_m3-PolyPaper9_-621142",
			"type" : "VEC3"
		}
	],
	"asset" : 
	{
		"copyright" : "Unknown",
		"generator" : "glTF 1-to-2 Upgrader for Google Blocks",
		"version" : "2.0"
	},
	"bufferViews" : 
	[
		{
			"buffer" : 0,
			"byteLength" : 103704,
			"byteOffset" : 0,
			"name" : "ushortBufferView",
			"target" : 34963
		},
		{
			"buffer" : 0,
			"byteLength" : 819072,
			"byteOffset" : 103704,
			"byteStride" : 12,
			"name" : "vec3BufferView",
			"target" : 34962
		},
		{
			"buffer" : 0,
			"byteLength" : 546048,
			"byteOffset" : 922776,
			"byteStride" : 16,
			"name" : "vec4BufferView",
			"target" : 34962
		}
	],
	"buffers" : 
	[
		{
			"byteLength" : 1468824,
			"name" : "model",
			"uri" : "model.bin"
		}
	],
	"materials" : 
	[
		{
			"alphaMode" : "OPAQUE",
			"doubleSided" : false,
			"name" : "BlocksPaper",
			"pbrMetallicRoughness" : 
			{
				"baseColorFactor" : 
				[
					1,
					1,
					1,
					1
				],
				"metallicFactor" : 0,
				"roughnessFactor" : 0.6
			}
		},
		{
			"alphaMode" : "BLEND",
			"doubleSided" : false,
			"name" : "BlocksGlass",
			"pbrMetallicRoughness" : 
			{
				"baseColorFactor" : 
				[
					0.2,
					0.2,
					1,
					0.3
				],
				"metallicFactor" : 1,
				"roughnessFactor" : 0.4
			}
		},
		{
			"alphaMode" : "OPAQUE",
			"doubleSided" : true,
			"name" : "BlocksGem",
			"pbrMetallicRoughness" : 
			{
				"baseColorFactor" : 
				[
					1,
					0.4,
					1,
					1
				],
				"metallicFactor" : 0,
				"roughnessFactor" : 0.1
			}
		}
	],
	"meshes" : 
	[
		{
			"name" : "mesh_m0-PolyPaper13_-621124",
			"primitives" : 
			[
				{
					"attributes" : 
					{
						"COLOR_0" : 0,
						"NORMAL" : 8,
						"POSITION" : 12
					},
					"indices" : 4,
					"material" : 0,
					"mode" : 4
				}
			]
		},
		{
			"name" : "mesh_m1-PolyPaper20_-621130",
			"primitives" : 
			[
				{
					"attributes" : 
					{
						"COLOR_0" : 1,
						"NORMAL" : 9,
						"POSITION" : 13
					},
					"indices" : 5,
					"material" : 0,
					"mode" : 4
				}
			]
		},
		{
			"name" : "mesh_m2-PolyPaper10_-621136",
			"primitives" : 
			[
				{
					"attributes" : 
					{
						"COLOR_0" : 2,
						"NORMAL" : 10,
						"POSITION" : 14
					},
					"indices" : 6,
					"material" : 0,
					"mode" : 4
				}
			]
		},
		{
			"name" : "mesh_m3-PolyPaper9_-621142",
			"primitives" : 
			[
				{
					"attributes" : 
					{
						"COLOR_0" : 3,
						"NORMAL" : 11,
						"POSITION" : 15
					},
					"indices" : 7,
					"material" : 0,
					"mode" : 4
				}
			]
		}
	],
	"nodes" : 
	[
		{
			"matrix" : 
			[
				1,
				0,
				0,
				0,
				0,
				1,
				0,
				0,
				0,
				0,
				1,
				0,
				0,
				0,
				0,
				1
			],
			"mesh" : 0,
			"name" : "node_MeshObject-183377920-PolyPaper13"
		},
		{
			"matrix" : 
			[
				1,
				0,
				0,
				0,
				0,
				1,
				0,
				0,
				0,
				0,
				1,
				0,
				0,
				0,
				0,
				1
			],
			"mesh" : 3,
			"name" : "node_MeshObject1532859392-PolyPaper9"
		},
		{
			"matrix" : 
			[
				1,
				0,
				0,
				0,
				0,
				1,
				0,
				0,
				0,
				0,
				1,
				0,
				0,
				0,
				0,
				1
			],
			"mesh" : 1,
			"name" : "node_MeshObject388701184-PolyPaper20"
		},
		{
			"matrix" : 
			[
				1,
				0,
				0,
				0,
				0,
				1,
				0,
				0,
				0,
				0,
				1,
				0,
				0,
				0,
				0,
				1
			],
			"mesh" : 2,
			"name" : "node_MeshObject960780288-PolyPaper10"
		}
	],
	"scene" : 0,
	"scenes" : 
	[
		{
			"extras" : {},
			"name" : "defaultScene",
			"nodes" : 
			[
				0,
				2,
				3,
				1
			]
		}
	]
}