{
  "accessors": [
    {
      "bufferView": 2,
      "componentType": 5126,
      "count": 25996,
      "max": [
        3.8302469253540039,
        -2.2870090007781982,
        5.3143858909606934
      ],
      "min": [
        -4.2986249923706055,
        -18.715774536132812,
        -5.3122119903564453
      ],
      "type": "VEC3"
    },
    {
      "bufferView": 2,
      "byteOffset": 311952,
      "componentType": 5126,
      "count": 25996,
      "max": [
        0.99990397691726685,
        0.99994200468063354,
        0.99999237060546875
      ],
      "min": [
        -0.99998438358306885,
        -0.99999165534973145,
        -0.99994564056396484
      ],
      "type": "VEC3"
    },
    {
      "bufferView": 3,
      "componentType": 5126,
      "count": 25996,
      "max": [
        0.99994683265686035,
        0.99916422367095947,
        0.99985247850418091,
        1
      ],
      "min": [
        -0.99995595216751099,
        -0.99998098611831665,
        -0.99997329711914062,
        -1
      ],
      "type": "VEC4"
    },
    {
      "bufferView": 1,
      "componentType": 5126,
      "count": 25996,
      "max": [
        0.99999600648880005,
        0.99999099969863892
      ],
      "min": [
        2.7000000045518391e-05,
        0.038787998259067535
      ],
      "type": "VEC2"
    },
    {
      "bufferView": 0,
      "componentType": 5125,
      "count": 150000,
      "max": [
        25995
      ],
      "min": [
        0
      ],
      "type": "SCALAR"
    }
  ],
  "asset": {
    "extras": {
      "author": "dievitacola (https://sketchfab.com/dievitacola)",
      "license": "CC-BY-4.0 (http://creativecommons.org/licenses/by/4.0/)",
      "source": "https://sketchfab.com/models/9e95d92cd35547a6828ffbcaf7a3d1f2",
      "title": "Buddha PBR"
    },
    "generator": "Sketchfab-3.19.3",
    "version": "2.0"
  },
  "bufferViews": [
    {
      "buffer": 0,
      "byteLength": 600000,
      "byteOffset": 0,
      "name": "floatBufferViews",
      "target": 34963
    },
    {
      "buffer": 0,
      "byteLength": 207968,
      "byteOffset": 600000,
      "byteStride": 8,
      "name": "floatBufferViews",
      "target": 34962
    },
    {
      "buffer": 0,
      "byteLength": 623904,
      "byteOffset": 807968,
      "byteStride": 12,
      "name": "floatBufferViews",
      "target": 34962
    },
    {
      "buffer": 0,
      "byteLength": 415936,
      "byteOffset": 1431872,
      "byteStride": 16,
      "name": "floatBufferViews",
      "target": 34962
    }
  ],
  "buffers": [
    {
      "byteLength": 1847808,
      "uri": "scene.bin"
    }
  ],
  "images": [
    {
      "uri": "textures/Material_0_metallicRoughness.png"
    },
    {
      "uri": "textures/Material_0_baseColor.jpg"
    }
  ],
  "materials": [
    {
      "doubleSided": false,
      "emissiveFactor": [
        0,
        0,
        0
      ],
      "name": "Material_0",
      "occlusionTexture": {
        "index": 0,
        "strength": 0.79000000000000004,
        "texCoord": 0
      },
      "pbrMetallicRoughness": {
        "baseColorFactor": [
          1,
          1,
          1,
          1
        ],
        "baseColorTexture": {
          "index": 1,
          "texCoord": 0
        },
        "metallicFactor": 1,
        "metallicRoughnessTexture": {
          "index": 0,
          "texCoord": 0
        },
        "roughnessFactor": 1
      }
    }
  ],
  "meshes": [
    {
      "primitives": [
        {
          "attributes": {
            "NORMAL": 1,
            "POSITION": 0,
            "TANGENT": 2,
            "TEXCOORD_0": 3
          },
          "indices": 4,
          "material": 0,
          "mode": 4
        }
      ]
    }
  ],
  "nodes": [
    {
      "children": [
        1
      ],
      "name": "RootNode (gltf orientation matrix)",
      "rotation": [
        -0.70710678118654746,
        -0,
        -0,
        0.70710678118654757
      ]
    },
    {
      "children": [
        2
      ],
      "matrix": [
        0.99136459827423096,
        -0.13113424181938171,
        0,
        0,
        -0.0062405564822256565,
        -0.047178119421005249,
        -0.9988669753074646,
        0,
        0.13098566234111786,
        0.9902414083480835,
        -0.047589067369699478,
        0,
        -0.067699164152145386,
        -11.02863597869873,
        -10.488378524780273,
        1
      ],
      "name": "RootNode (model correction matrix)"
    },
    {
      "children": [
        3
      ],
      "name": "buddha-exported.obj.cleaner"
    },
    {
      "mesh": 0,
      "name": ""
    }
  ],
  "samplers": [
    {
      "magFilter": 9729,
      "minFilter": 9987,
      "wrapS": 10497,
      "wrapT": 10497
    }
  ],
  "scene": 0,
  "scenes": [
    {
      "name": "OSG_Scene",
      "nodes": [
        0
      ]
    }
  ],
  "textures": [
    {
      "sampler": 0,
      "source": 0
    },
    {
      "sampler": 0,
      "source": 1
    }
  ]
}

