{
	"accessors" : 
	[
		{
			"bufferView" : 2,
			"byteOffset" : 0,
			"componentType" : 5126,
			"count" : 13956,
			"max" : 
			[
				1,
				1,
				1,
				1
			],
			"min" : 
			[
				0,
				0.006584956776350737,
				0,
				1
			],
			"name" : "accessor_color_m0-PolyPaper21_-750196",
			"type" : "VEC4"
		},
		{
			"bufferView" : 2,
			"byteOffset" : 223296,
			"componentType" : 5126,
			"count" : 7989,
			"max" : 
			[
				1,
				1,
				1,
				1
			],
			"min" : 
			[
				5.692175545846112e-05,
				0.006584956776350737,
				0,
				1
			],
			"name" : "accessor_color_m3-PolyPaper18_-750214",
			"type" : "VEC4"
		},
		{
			"bufferView" : 0,
			"byteOffset" : 0,
			"componentType" : 5123,
			"count" : 20628,
			"max" : 
			[
				13955
			],
			"min" : 
			[
				0
			],
			"name" : "accessor_indices_0_m0-PolyPaper21_-750196",
			"type" : "SCALAR"
		},
		{
			"bufferView" : 0,
			"byteOffset" : 41256,
			"componentType" : 5123,
			"count" : 11901,
			"max" : 
			[
				7988
			],
			"min" : 
			[
				0
			],
			"name" : "accessor_indices_0_m3-PolyPaper18_-750214",
			"type" : "SCALAR"
		},
		{
			"bufferView" : 1,
			"byteOffset" : 167472,
			"componentType" : 5126,
			"count" : 13956,
			"max" : 
			[
				0.9999177,
				0.9999501,
				0.9999414
			],
			"min" : 
			[
				-0.999925,
				-0.9999607,
				-0.9998198
			],
			"name" : "accessor_normal_m0-PolyPaper21_-750196",
			"type" : "VEC3"
		},
		{
			"bufferView" : 1,
			"byteOffset" : 430812,
			"componentType" : 5126,
			"count" : 7989,
			"max" : 
			[
				0.9999259,
				0.9999401999999999,
				0.9999943
			],
			"min" : 
			[
				-0.9999366,
				-0.9999525,
				-0.9997847
			],
			"name" : "accessor_normal_m3-PolyPaper18_-750214",
			"type" : "VEC3"
		},
		{
			"bufferView" : 1,
			"byteOffset" : 0,
			"componentType" : 5126,
			"count" : 13956,
			"max" : 
			[
				1.018288,
				2.312737,
				0.7326097
			],
			"min" : 
			[
				0.5616982,
				1.949319,
				0.5416613
			],
			"name" : "accessor_position_m0-PolyPaper21_-750196",
			"type" : "VEC3"
		},
		{
			"bufferView" : 1,
			"byteOffset" : 334944,
			"componentType" : 5126,
			"count" : 7989,
			"max" : 
			[
				1.031444,
				2.312266,
				0.7504215
			],
			"min" : 
			[
				0.5818911,
				1.951932,
				0.5579299
			],
			"name" : "accessor_position_m3-PolyPaper18_-750214",
			"type" : "VEC3"
		}
	],
	"asset" : 
	{
		"copyright" : "Unknown",
		"generator" : "glTF 1-to-2 Upgrader for Google Blocks",
		"version" : "2.0"
	},
	"bufferViews" : 
	[
		{
			"buffer" : 0,
			"byteLength" : 65058,
			"byteOffset" : 0,
			"name" : "ushortBufferView",
			"target" : 34963
		},
		{
			"buffer" : 0,
			"byteLength" : 526680,
			"byteOffset" : 65058,
			"byteStride" : 12,
			"name" : "vec3BufferView",
			"target" : 34962
		},
		{
			"buffer" : 0,
			"byteLength" : 351120,
			"byteOffset" : 591738,
			"byteStride" : 16,
			"name" : "vec4BufferView",
			"target" : 34962
		}
	],
	"buffers" : 
	[
		{
			"byteLength" : 942858,
			"name" : "model",
			"uri" : "model.bin"
		}
	],
	"materials" : 
	[
		{
			"alphaMode" : "OPAQUE",
			"doubleSided" : false,
			"name" : "BlocksPaper",
			"pbrMetallicRoughness" : 
			{
				"baseColorFactor" : 
				[
					1,
					1,
					1,
					1
				],
				"metallicFactor" : 0,
				"roughnessFactor" : 0.6
			}
		},
		{
			"alphaMode" : "BLEND",
			"doubleSided" : false,
			"name" : "BlocksGlass",
			"pbrMetallicRoughness" : 
			{
				"baseColorFactor" : 
				[
					0.2,
					0.2,
					1,
					0.3
				],
				"metallicFactor" : 1,
				"roughnessFactor" : 0.4
			}
		},
		{
			"alphaMode" : "OPAQUE",
			"doubleSided" : true,
			"name" : "BlocksGem",
			"pbrMetallicRoughness" : 
			{
				"baseColorFactor" : 
				[
					1,
					0.4,
					1,
					1
				],
				"metallicFactor" : 0,
				"roughnessFactor" : 0.1
			}
		}
	],
	"meshes" : 
	[
		{
			"name" : "mesh_m0-PolyPaper21_-750196",
			"primitives" : 
			[
				{
					"attributes" : 
					{
						"COLOR_0" : 0,
						"NORMAL" : 4,
						"POSITION" : 6
					},
					"indices" : 2,
					"material" : 0,
					"mode" : 4
				}
			]
		},
		{
			"name" : "mesh_m3-PolyPaper18_-750214",
			"primitives" : 
			[
				{
					"attributes" : 
					{
						"COLOR_0" : 1,
						"NORMAL" : 5,
						"POSITION" : 7
					},
					"indices" : 3,
					"material" : 0,
					"mode" : 4
				}
			]
		}
	],
	"nodes" : 
	[
		{
			"matrix" : 
			[
				1,
				0,
				0,
				0,
				0,
				1,
				0,
				0,
				0,
				0,
				1,
				0,
				0,
				0,
				0,
				1
			],
			"mesh" : 0,
			"name" : "node_MeshObject2046078976-PolyPaper21"
		},
		{
			"matrix" : 
			[
				1,
				0,
				0,
				0,
				0,
				1,
				0,
				0,
				0,
				0,
				1,
				0,
				0,
				0,
				0,
				1
			],
			"mesh" : 1,
			"name" : "node_MeshObject910668800-PolyPaper18"
		}
	],
	"scene" : 0,
	"scenes" : 
	[
		{
			"extras" : {},
			"name" : "defaultScene",
			"nodes" : 
			[
				0,
				1
			]
		}
	]
}