{
  "accessors": [
    {
      "bufferView": 1,
      "componentType": 5126,
      "count": 126,
      "max": [
        1.9765299558639526,
        2.4432799816131592,
        1.3860100507736206
      ],
      "min": [
        -1.743939995765686,
        -1.4006099700927734,
        -0.96170002222061157
      ],
      "type": "VEC3"
    },
    {
      "bufferView": 1,
      "byteOffset": 1512,
      "componentType": 5126,
      "count": 126,
      "max": [
        0.98224562406539917,
        0.93417000770568848,
        0.79465383291244507
      ],
      "min": [
        -0.98224562406539917,
        -0.93417000770568848,
        -0.79465383291244507
      ],
      "type": "VEC3"
    },
    {
      "bufferView": 0,
      "componentType": 5125,
      "count": 126,
      "max": [
        125
      ],
      "min": [
        0
      ],
      "type": "SCALAR"
    },
    {
      "bufferView": 2,
      "componentType": 5126,
      "count": 2,
      "max": [
        4.1666698455810547
      ],
      "min": [
        0.041669998317956924
      ],
      "type": "SCALAR"
    },
    {
      "bufferView": 3,
      "componentType": 5126,
      "count": 2,
      "max": [
        0,
        0,
        0.97386997938156128
      ],
      "min": [
        0,
        0,
        0.97386997938156128
      ],
      "type": "VEC3"
    },
    {
      "bufferView": 2,
      "byteOffset": 8,
      "componentType": 5126,
      "count": 100,
      "max": [
        4.1666698455810547
      ],
      "min": [
        0.041669998317956924
      ],
      "type": "SCALAR"
    },
    {
      "bufferView": 4,
      "componentType": 5126,
      "count": 100,
      "max": [
        0.70709997415542603,
        0.70709997415542603,
        0.70709997415542603,
        1
      ],
      "min": [
        -0.70161998271942139,
        -0.19245000183582306,
        -0.70161998271942139,
        0.0053400001488626003
      ],
      "type": "VEC4"
    },
    {
      "bufferView": 2,
      "byteOffset": 408,
      "componentType": 5126,
      "count": 100,
      "max": [
        4.1666698455810547
      ],
      "min": [
        0.041669998317956924
      ],
      "type": "SCALAR"
    },
    {
      "bufferView": 3,
      "byteOffset": 24,
      "componentType": 5126,
      "count": 100,
      "max": [
        2,
        2,
        2
      ],
      "min": [
        1,
        1,
        1
      ],
      "type": "VEC3"
    }
  ],
  "animations": [
    {
      "channels": [
        {
          "sampler": 0,
          "target": {
            "node": 3,
            "path": "translation"
          }
        },
        {
          "sampler": 1,
          "target": {
            "node": 3,
            "path": "rotation"
          }
        },
        {
          "sampler": 2,
          "target": {
            "node": 3,
            "path": "scale"
          }
        }
      ],
      "name": "XP Orbs Idle Animation",
      "samplers": [
        {
          "input": 3,
          "interpolation": "LINEAR",
          "output": 4
        },
        {
          "input": 5,
          "interpolation": "LINEAR",
          "output": 6
        },
        {
          "input": 7,
          "interpolation": "LINEAR",
          "output": 8
        }
      ]
    }
  ],
  "asset": {
    "extras": {
      "author": "TheMuffinCoder (https://sketchfab.com/themuffincoder)",
      "license": "CC-BY-4.0 (http://creativecommons.org/licenses/by/4.0/)",
      "source": "https://sketchfab.com/models/7ee2ec18be7946a2b31693133d05c6b8",
      "title": "XP Orb (MAP:DungeonEdition)"
    },
    "generator": "Sketchfab-3.18.6",
    "version": "2.0"
  },
  "bufferViews": [
    {
      "buffer": 0,
      "byteLength": 504,
      "byteOffset": 0,
      "name": "floatBufferViews",
      "target": 34963
    },
    {
      "buffer": 0,
      "byteLength": 3024,
      "byteOffset": 504,
      "byteStride": 12,
      "name": "floatBufferViews",
      "target": 34962
    },
    {
      "buffer": 0,
      "byteLength": 808,
      "byteOffset": 3528,
      "name": "floatBufferViews"
    },
    {
      "buffer": 0,
      "byteLength": 1224,
      "byteOffset": 4336,
      "byteStride": 12,
      "name": "floatBufferViews"
    },
    {
      "buffer": 0,
      "byteLength": 1600,
      "byteOffset": 5560,
      "byteStride": 16,
      "name": "floatBufferViews"
    }
  ],
  "buffers": [
    {
      "byteLength": 7160,
      "uri": "scene.bin"
    }
  ],
  "materials": [
    {
      "doubleSided": true,
      "emissiveFactor": [
        0.42999107400000003,
        1,
        1
      ],
      "name": "XP_Blue_glow",
      "pbrMetallicRoughness": {
        "baseColorFactor": [
          0.10479006170000001,
          0.81954973939999998,
          1,
          1
        ],
        "metallicFactor": 0,
        "roughnessFactor": 0.59999999999999998
      }
    }
  ],
  "meshes": [
    {
      "name": "XP Orbs_0",
      "primitives": [
        {
          "attributes": {
            "NORMAL": 1,
            "POSITION": 0
          },
          "indices": 2,
          "material": 0,
          "mode": 4
        }
      ]
    }
  ],
  "nodes": [
    {
      "children": [
        1
      ],
      "name": "RootNode (gltf orientation matrix)",
      "rotation": [
        -0.70710678118654746,
        -0,
        -0,
        0.70710678118654757
      ]
    },
    {
      "children": [
        2
      ],
      "name": "RootNode (model correction matrix)"
    },
    {
      "children": [
        3
      ],
      "name": "Root"
    },
    {
      "children": [
        4
      ],
      "name": "XP Orbs",
      "translation": [
        0,
        0,
        0.97386997938156128
      ]
    },
    {
      "mesh": 0,
      "name": "XP Orbs_0"
    }
  ],
  "scene": 0,
  "scenes": [
    {
      "name": "OSG_Scene",
      "nodes": [
        0
      ]
    }
  ]
}

