{
  "accessors": [
    {
      "bufferView": 2,
      "componentType": 5126,
      "count": 65532,
      "max": [
        14.76554012298584,
        0.068088002502918243,
        12.159458160400391
      ],
      "min": [
        -17.300148010253906,
        -19.51783561706543,
        -12.110782623291016
      ],
      "type": "VEC3"
    },
    {
      "bufferView": 2,
      "byteOffset": 786384,
      "componentType": 5126,
      "count": 65532,
      "max": [
        0.99999147653579712,
        0.99994748830795288,
        0.99999821186065674
      ],
      "min": [
        -0.99997389316558838,
        -0.99996423721313477,
        -0.99998724460601807
      ],
      "type": "VEC3"
    },
    {
      "bufferView": 3,
      "componentType": 5126,
      "count": 65532,
      "max": [
        0.99999916553497314,
        0.99998325109481812,
        0.9999774694442749,
        1
      ],
      "min": [
        -0.99592268466949463,
        -0.99999326467514038,
        -0.99959719181060791,
        -1
      ],
      "type": "VEC4"
    },
    {
      "bufferView": 1,
      "componentType": 5126,
      "count": 65532,
      "max": [
        0.9984779953956604,
        0.99993902444839478
      ],
      "min": [
        0.00099299999419599771,
        0.011123999953269958
      ],
      "type": "VEC2"
    },
    {
      "bufferView": 0,
      "componentType": 5125,
      "count": 321870,
      "max": [
        65531
      ],
      "min": [
        0
      ],
      "type": "SCALAR"
    },
    {
      "bufferView": 2,
      "byteOffset": 1572768,
      "componentType": 5126,
      "count": 11044,
      "max": [
        22.221439361572266,
        2.9628100395202637,
        13.940749168395996
      ],
      "min": [
        -2.1230781078338623,
        -22.454505920410156,
        -13.196370124816895
      ],
      "type": "VEC3"
    },
    {
      "bufferView": 2,
      "byteOffset": 1705296,
      "componentType": 5126,
      "count": 11044,
      "max": [
        0.98989009857177734,
        0.99997478723526001,
        0.99997276067733765
      ],
      "min": [
        -0.99999934434890747,
        -0.99996685981750488,
        -0.99995601177215576
      ],
      "type": "VEC3"
    },
    {
      "bufferView": 3,
      "byteOffset": 1048512,
      "componentType": 5126,
      "count": 11044,
      "max": [
        0.99997806549072266,
        0.99998891353607178,
        0.99953311681747437,
        1
      ],
      "min": [
        -0.99353981018066406,
        -0.99999219179153442,
        -0.99999117851257324,
        -1
      ],
      "type": "VEC4"
    },
    {
      "bufferView": 1,
      "byteOffset": 524256,
      "componentType": 5126,
      "count": 11044,
      "max": [
        0.98033601045608521,
        0.99896401166915894
      ],
      "min": [
        0.0010019999463111162,
        0.0057959998957812786
      ],
      "type": "VEC2"
    },
    {
      "bufferView": 0,
      "byteOffset": 1287480,
      "componentType": 5125,
      "count": 50412,
      "max": [
        11043
      ],
      "min": [
        0
      ],
      "type": "SCALAR"
    },
    {
      "bufferView": 2,
      "byteOffset": 1837824,
      "componentType": 5126,
      "count": 65532,
      "max": [
        22.087451934814453,
        2.7481200695037842,
        14.429492950439453
      ],
      "min": [
        -17.302738189697266,
        -22.495800018310547,
        -12.23350715637207
      ],
      "type": "VEC3"
    },
    {
      "bufferView": 2,
      "byteOffset": 2624208,
      "componentType": 5126,
      "count": 65532,
      "max": [
        0.99949133396148682,
        0.99999910593032837,
        0.99996346235275269
      ],
      "min": [
        -0.99999874830245972,
        -0.99992501735687256,
        -0.99990808963775635
      ],
      "type": "VEC3"
    },
    {
      "bufferView": 3,
      "byteOffset": 1225216,
      "componentType": 5126,
      "count": 65532,
      "max": [
        1,
        0.99999541044235229,
        0.9999924898147583,
        1
      ],
      "min": [
        -0.98957264423370361,
        -0.99998509883880615,
        -0.9998316764831543,
        -1
      ],
      "type": "VEC4"
    },
    {
      "bufferView": 1,
      "byteOffset": 612608,
      "componentType": 5126,
      "count": 65532,
      "max": [
        0.996878981590271,
        0.99899601936340332
      ],
      "min": [
        0.00099199998658150434,
        0.0091869998723268509
      ],
      "type": "VEC2"
    },
    {
      "bufferView": 0,
      "byteOffset": 1489128,
      "componentType": 5125,
      "count": 331035,
      "max": [
        65531
      ],
      "min": [
        0
      ],
      "type": "SCALAR"
    },
    {
      "bufferView": 2,
      "byteOffset": 3410592,
      "componentType": 5126,
      "count": 4934,
      "max": [
        22.149415969848633,
        2.9648358821868896,
        -4.1177101135253906
      ],
      "min": [
        12.302292823791504,
        -16.623828887939453,
        -11.668597221374512
      ],
      "type": "VEC3"
    },
    {
      "bufferView": 2,
      "byteOffset": 3469800,
      "componentType": 5126,
      "count": 4934,
      "max": [
        0.95689773559570312,
        0.99870997667312622,
        0.46679505705833435
      ],
      "min": [
        -0.99999874830245972,
        -0.86258542537689209,
        -0.99990808963775635
      ],
      "type": "VEC3"
    },
    {
      "bufferView": 3,
      "byteOffset": 2273728,
      "componentType": 5126,
      "count": 4934,
      "max": [
        0.99998533725738525,
        0.92194956541061401,
        0.97802829742431641,
        1
      ],
      "min": [
        -0.94187486171722412,
        -0.99988186359405518,
        -0.99911952018737793,
        -1
      ],
      "type": "VEC4"
    },
    {
      "bufferView": 1,
      "byteOffset": 1136864,
      "componentType": 5126,
      "count": 4934,
      "max": [
        0.94880598783493042,
        0.7482990026473999
      ],
      "min": [
        0.12598299980163574,
        0.21550999581813812
      ],
      "type": "VEC2"
    },
    {
      "bufferView": 0,
      "byteOffset": 2813268,
      "componentType": 5125,
      "count": 18726,
      "max": [
        4933
      ],
      "min": [
        0
      ],
      "type": "SCALAR"
    },
    {
      "bufferView": 2,
      "byteOffset": 3529008,
      "componentType": 5126,
      "count": 23149,
      "max": [
        22.042449951171875,
        2.1932260990142822,
        12.884984970092773
      ],
      "min": [
        -14.983445167541504,
        -22.536117553710938,
        -12.251668930053711
      ],
      "type": "VEC3"
    },
    {
      "bufferView": 2,
      "byteOffset": 3806796,
      "componentType": 5126,
      "count": 23149,
      "max": [
        0.99983745813369751,
        0.99999874830245972,
        0.99988377094268799
      ],
      "min": [
        -0.99999934434890747,
        -0.9973481297492981,
        -0.99997889995574951
      ],
      "type": "VEC3"
    },
    {
      "bufferView": 3,
      "byteOffset": 2352672,
      "componentType": 5126,
      "count": 23149,
      "max": [
        0.99998903274536133,
        0.99992209672927856,
        0.99995279312133789,
        1
      ],
      "min": [
        -0.93364197015762329,
        -0.99782633781433105,
        -0.9999733567237854,
        -1
      ],
      "type": "VEC4"
    },
    {
      "bufferView": 1,
      "byteOffset": 1176336,
      "componentType": 5126,
      "count": 23149,
      "max": [
        0.996815025806427,
        0.9980279803276062
      ],
      "min": [
        0.0019549999851733446,
        0.0021810000762343407
      ],
      "type": "VEC2"
    },
    {
      "bufferView": 0,
      "byteOffset": 2888172,
      "componentType": 5125,
      "count": 110898,
      "max": [
        23148
      ],
      "min": [
        0
      ],
      "type": "SCALAR"
    }
  ],
  "asset": {
    "extras": {
      "author": "Geoffrey Marchal (https://sketchfab.com/geoffreymarchal)",
      "license": "CC-BY-4.0 (http://creativecommons.org/licenses/by/4.0/)",
      "source": "https://sketchfab.com/models/1aa1280e6c714318b2ca55ed1d1f9c04",
      "title": "Ganesa"
    },
    "generator": "Sketchfab-3.18.2",
    "version": "2.0"
  },
  "bufferViews": [
    {
      "buffer": 0,
      "byteLength": 3331764,
      "byteOffset": 0,
      "name": "floatBufferViews",
      "target": 34963
    },
    {
      "buffer": 0,
      "byteLength": 1361528,
      "byteOffset": 3331764,
      "byteStride": 8,
      "name": "floatBufferViews",
      "target": 34962
    },
    {
      "buffer": 0,
      "byteLength": 4084584,
      "byteOffset": 4693292,
      "byteStride": 12,
      "name": "floatBufferViews",
      "target": 34962
    },
    {
      "buffer": 0,
      "byteLength": 2723056,
      "byteOffset": 8777876,
      "byteStride": 16,
      "name": "floatBufferViews",
      "target": 34962
    }
  ],
  "buffers": [
    {
      "byteLength": 11500932,
      "uri": "scene.bin"
    }
  ],
  "images": [
    {
      "uri": "textures/Material_2_baseColor.jpeg"
    },
    {
      "uri": "textures/Material_0_baseColor.jpeg"
    },
    {
      "uri": "textures/Material_1_baseColor.jpeg"
    }
  ],
  "materials": [
    {
      "doubleSided": true,
      "emissiveFactor": [
        0,
        0,
        0
      ],
      "name": "Material_0",
      "pbrMetallicRoughness": {
        "baseColorFactor": [
          1,
          1,
          1,
          1
        ],
        "baseColorTexture": {
          "index": 1,
          "texCoord": 0
        },
        "metallicFactor": 0,
        "roughnessFactor": 0.59999999999999998
      }
    },
    {
      "doubleSided": true,
      "emissiveFactor": [
        0,
        0,
        0
      ],
      "name": "Material_1",
      "pbrMetallicRoughness": {
        "baseColorFactor": [
          1,
          1,
          1,
          1
        ],
        "baseColorTexture": {
          "index": 2,
          "texCoord": 0
        },
        "metallicFactor": 0,
        "roughnessFactor": 0.59999999999999998
      }
    },
    {
      "doubleSided": true,
      "name": "Material_2",
      "pbrMetallicRoughness": {
        "baseColorFactor": [
          1,
          1,
          1,
          1
        ],
        "baseColorTexture": {
          "index": 0,
          "texCoord": 0
        },
        "metallicFactor": 0,
        "roughnessFactor": 0.59999999999999998
      }
    }
  ],
  "meshes": [
    {
      "primitives": [
        {
          "attributes": {
            "NORMAL": 1,
            "POSITION": 0,
            "TANGENT": 2,
            "TEXCOORD_0": 3
          },
          "indices": 4,
          "material": 0,
          "mode": 4
        }
      ]
    },
    {
      "primitives": [
        {
          "attributes": {
            "NORMAL": 6,
            "POSITION": 5,
            "TANGENT": 7,
            "TEXCOORD_0": 8
          },
          "indices": 9,
          "material": 0,
          "mode": 4
        }
      ]
    },
    {
      "primitives": [
        {
          "attributes": {
            "NORMAL": 11,
            "POSITION": 10,
            "TANGENT": 12,
            "TEXCOORD_0": 13
          },
          "indices": 14,
          "material": 1,
          "mode": 4
        }
      ]
    },
    {
      "primitives": [
        {
          "attributes": {
            "NORMAL": 16,
            "POSITION": 15,
            "TANGENT": 17,
            "TEXCOORD_0": 18
          },
          "indices": 19,
          "material": 1,
          "mode": 4
        }
      ]
    },
    {
      "primitives": [
        {
          "attributes": {
            "NORMAL": 21,
            "POSITION": 20,
            "TANGENT": 22,
            "TEXCOORD_0": 23
          },
          "indices": 24,
          "material": 2,
          "mode": 4
        }
      ]
    }
  ],
  "nodes": [
    {
      "children": [
        1
      ],
      "name": "RootNode (gltf orientation matrix)",
      "rotation": [
        -0.70710678118654746,
        -0,
        -0,
        0.70710678118654757
      ]
    },
    {
      "children": [
        2
      ],
      "matrix": [
        0.019989175722002983,
        -0.034955568611621857,
        -0.99918895959854126,
        0,
        0.043443646281957626,
        -0.99841433763504028,
        0.035797577351331711,
        0,
        -0.99885588884353638,
        -0.044123973697423935,
        -0.018438881263136864,
        0,
        3.7452669143676758,
        -19.388811111450195,
        3.7356240749359131,
        1
      ],
      "name": "RootNode (model correction matrix)"
    },
    {
      "children": [
        3,
        4,
        5,
        6,
        7
      ],
      "name": "Ganesa-best-exported.obj.cleaner"
    },
    {
      "mesh": 0,
      "name": ""
    },
    {
      "mesh": 1,
      "name": ""
    },
    {
      "mesh": 2,
      "name": ""
    },
    {
      "mesh": 3,
      "name": ""
    },
    {
      "mesh": 4,
      "name": ""
    }
  ],
  "samplers": [
    {
      "magFilter": 9729,
      "minFilter": 9987,
      "wrapS": 10497,
      "wrapT": 10497
    }
  ],
  "scene": 0,
  "scenes": [
    {
      "name": "OSG_Scene",
      "nodes": [
        0
      ]
    }
  ],
  "textures": [
    {
      "sampler": 0,
      "source": 0
    },
    {
      "sampler": 0,
      "source": 1
    },
    {
      "sampler": 0,
      "source": 2
    }
  ]
}

