{
   "accessors" : [
      {
         "bufferView" : 2,
         "byteOffset" : 0,
         "componentType" : 5126,
         "count" : 3436,
         "max" : [ 0.9075472354888916, 0.6940805315971375, 0.7893137335777283, 1 ],
         "min" : [ 5.692175545846112e-05, 0.006584956776350737, 0.006584956776350737, 1 ],
         "name" : "accessor_color_m0-PolyPaper17_-46282",
         "type" : "VEC4"
      },
      {
         "bufferView" : 2,
         "byteOffset" : 54976,
         "componentType" : 5126,
         "count" : 14,
         "max" : [ 1, 1, 1, 1 ],
         "min" : [ 1, 1, 1, 1 ],
         "name" : "accessor_color_m1-PolyGlass24_-46288",
         "type" : "VEC4"
      },
      {
         "bufferView" : 0,
         "byteOffset" : 0,
         "componentType" : 5123,
         "count" : 5562,
         "max" : [ 3435 ],
         "min" : [ 0 ],
         "name" : "accessor_indices_0_m0-PolyPaper17_-46282",
         "type" : "SCALAR"
      },
      {
         "bufferView" : 0,
         "byteOffset" : 11124,
         "componentType" : 5123,
         "count" : 36,
         "max" : [ 13 ],
         "min" : [ 0 ],
         "name" : "accessor_indices_0_m1-PolyGlass24_-46288",
         "type" : "SCALAR"
      },
      {
         "bufferView" : 1,
         "byteOffset" : 41232,
         "componentType" : 5126,
         "count" : 3436,
         "max" : [ 1, 1, 1 ],
         "min" : [ -1, -1, -1 ],
         "name" : "accessor_normal_m0-PolyPaper17_-46282",
         "type" : "VEC3"
      },
      {
         "bufferView" : 1,
         "byteOffset" : 82632,
         "componentType" : 5126,
         "count" : 14,
         "max" : [ -0.005131966, 0.003988023, 0.9999789 ],
         "min" : [ -0.005132257, 0.003987389, 0.9999787999999999 ],
         "name" : "accessor_normal_m1-PolyGlass24_-46288",
         "type" : "VEC3"
      },
      {
         "bufferView" : 1,
         "byteOffset" : 0,
         "componentType" : 5126,
         "count" : 3436,
         "max" : [ 0.3918135, 1.049132, -0.1826408 ],
         "min" : [ -0.2299663, 0.7800903, -0.2581509 ],
         "name" : "accessor_position_m0-PolyPaper17_-46282",
         "type" : "VEC3"
      },
      {
         "bufferView" : 1,
         "byteOffset" : 82464,
         "componentType" : 5126,
         "count" : 14,
         "max" : [ 0.276126, 1.017148, -0.1948127 ],
         "min" : [ -0.1002775, 0.8068738, -0.1975814 ],
         "name" : "accessor_position_m1-PolyGlass24_-46288",
         "type" : "VEC3"
      }
   ],
   "asset" : {
      "copyright" : "Unknown",
      "generator" : "glTF 1-to-2 Upgrader for Google Blocks",
      "version" : "2.0"
   },
   "bufferViews" : [
      {
         "buffer" : 0,
         "byteLength" : 11196,
         "byteOffset" : 0,
         "name" : "ushortBufferView",
         "target" : 34963
      },
      {
         "buffer" : 0,
         "byteLength" : 82800,
         "byteOffset" : 11196,
         "byteStride" : 12,
         "name" : "vec3BufferView",
         "target" : 34962
      },
      {
         "buffer" : 0,
         "byteLength" : 55200,
         "byteOffset" : 93996,
         "byteStride" : 16,
         "name" : "vec4BufferView",
         "target" : 34962
      }
   ],
   "buffers" : [
      {
         "byteLength" : 149196,
         "name" : "model",
         "uri" : "model.bin"
      }
   ],
   "materials" : [
      {
         "alphaMode" : "OPAQUE",
         "doubleSided" : false,
         "name" : "BlocksPaper",
         "pbrMetallicRoughness" : {
            "baseColorFactor" : [ 1, 1, 1, 1 ],
            "metallicFactor" : 0,
            "roughnessFactor" : 0.6
         }
      },
      {
         "alphaMode" : "BLEND",
         "doubleSided" : false,
         "name" : "BlocksGlass",
         "pbrMetallicRoughness" : {
            "baseColorFactor" : [ 0.2, 0.2, 1, 0.3 ],
            "metallicFactor" : 1,
            "roughnessFactor" : 0.4
         }
      },
      {
         "alphaMode" : "OPAQUE",
         "doubleSided" : true,
         "name" : "BlocksGem",
         "pbrMetallicRoughness" : {
            "baseColorFactor" : [ 1, 0.4, 1, 1 ],
            "metallicFactor" : 0,
            "roughnessFactor" : 0.1
         }
      }
   ],
   "meshes" : [
      {
         "name" : "mesh_m0-PolyPaper17_-46282",
         "primitives" : [
            {
               "attributes" : {
                  "COLOR_0" : 0,
                  "NORMAL" : 4,
                  "POSITION" : 6
               },
               "indices" : 2,
               "material" : 0,
               "mode" : 4
            }
         ]
      },
      {
         "name" : "mesh_m1-PolyGlass24_-46288",
         "primitives" : [
            {
               "attributes" : {
                  "COLOR_0" : 1,
                  "NORMAL" : 5,
                  "POSITION" : 7
               },
               "indices" : 3,
               "material" : 1,
               "mode" : 4
            }
         ]
      }
   ],
   "nodes" : [
      {
         "mesh" : 0,
         "name" : "node_MeshObject-425275392-PolyPaper17"
      },
      {
         "mesh" : 1,
         "name" : "node_MeshObject146803712-PolyGlass24"
      }
   ],
   "scene" : 0,
   "scenes" : [
      {
         "extras" : {},
         "name" : "defaultScene",
         "nodes" : [ 0, 1 ]
      }
   ]
}
